<svg xmlns="http://www.w3.org/2000/svg" xmlns:xlink="http://www.w3.org/1999/xlink" width="481" zoomAndPan="magnify" viewBox="0 0 360.75 374.999991" height="500" preserveAspectRatio="xMidYMid meet" version="1.0"><defs><clipPath id="a413e5a2da"><path d="M 101.910156 202.828125 L 103.414062 202.828125 L 103.414062 204.113281 L 101.910156 204.113281 Z M 101.910156 202.828125 " clip-rule="nonzero"/></clipPath><clipPath id="f24f3b6980"><path d="M 102.09375 203.867188 C 102.308594 202.640625 103.175781 202.855469 103.246094 203.074219 C 103.320312 203.289062 102.816406 204.082031 102.527344 204.082031 C 102.308594 204.082031 101.804688 203.21875 101.949219 203.074219 C 102.023438 202.855469 103.03125 202.785156 103.246094 202.929688 C 103.390625 203.074219 103.464844 203.722656 103.320312 203.9375 C 103.175781 204.15625 102.308594 204.082031 102.308594 204.082031 " clip-rule="nonzero"/></clipPath><clipPath id="7fb62662b7"><path d="M 0 0.128906 L 360.40625 0.128906 L 360.40625 374.871094 L 0 374.871094 Z M 0 0.128906 " clip-rule="nonzero"/></clipPath><clipPath id="e36254afa4"><path d="M 41.296875 178.957031 L 42.746094 178.957031 L 42.746094 180.207031 L 41.296875 180.207031 Z M 41.296875 178.957031 " clip-rule="nonzero"/></clipPath><clipPath id="de06f37ef5"><path d="M 42.71875 179.40625 C 42.121094 180.453125 41.519531 180.230469 41.371094 180.003906 C 41.222656 179.78125 41.371094 179.179688 41.519531 179.03125 C 41.746094 178.882812 42.570312 179.105469 42.570312 179.105469 " clip-rule="nonzero"/></clipPath></defs><g clip-path="url(#a413e5a2da)"><g clip-path="url(#f24f3b6980)"><path fill="#000000" d="M 99.066406 199.902344 L 106.285156 199.902344 L 106.285156 207.039062 L 99.066406 207.039062 Z M 99.066406 199.902344 " fill-opacity="1" fill-rule="nonzero"/></g></g><g clip-path="url(#7fb62662b7)"><path fill="#211d1d" d="M 16.941406 235.160156 L 30.675781 248.875 L 8.804688 257.074219 Z M 219.746094 8.578125 L 236.058594 24.90625 L 49.097656 211.972656 L 32.757812 195.667969 Z M 70.113281 232.945312 L 53.777344 216.640625 L 240.734375 29.582031 L 257.046875 45.90625 Z M 29.230469 202.066406 L 63.65625 236.515625 L 37.480469 246.324219 L 19.46875 228.347656 Z M 357.117188 367.996094 C 355.519531 367.996094 195.683594 367.675781 94.1875 340.035156 C 76.496094 335.21875 71.261719 332.253906 69.722656 330.984375 C 74.542969 327.789062 97.386719 324.738281 115.957031 322.261719 C 161.515625 316.179688 213.15625 309.296875 210.613281 287.1875 C 206.726562 253.394531 78.597656 255.714844 24.640625 258.199219 L 69.878906 241.242188 C 70.71875 241.21875 71.515625 240.886719 72.113281 240.296875 L 264.058594 48.246094 C 265.347656 46.953125 265.347656 44.859375 264.058594 43.570312 L 222.082031 1.566406 C 220.839844 0.328125 218.648438 0.328125 217.40625 1.566406 L 25.460938 193.621094 C 24.882812 194.199219 24.605469 194.9375 24.546875 195.691406 L 0.0898438 261.554688 C 0.0820312 261.570312 0.0820312 261.585938 0.078125 261.601562 C 0.0585938 261.652344 0.0585938 261.710938 0.0429688 261.761719 C -0.0546875 262.097656 -0.0976562 262.4375 -0.0898438 262.777344 C -0.0898438 262.828125 -0.113281 262.878906 -0.109375 262.933594 C -0.109375 262.988281 -0.0742188 263.035156 -0.0664062 263.09375 C -0.0273438 263.4375 0.0625 263.769531 0.207031 264.085938 C 0.226562 264.128906 0.234375 264.179688 0.257812 264.222656 C 0.410156 264.519531 0.605469 264.804688 0.851562 265.050781 C 0.886719 265.085938 0.9375 265.097656 0.972656 265.128906 C 1.082031 265.230469 1.210938 265.289062 1.335938 265.371094 C 1.574219 265.535156 1.800781 265.699219 2.070312 265.796875 C 2.183594 265.839844 2.316406 265.839844 2.441406 265.871094 C 2.6875 265.925781 2.929688 266.015625 3.1875 266.015625 C 3.226562 266.015625 3.265625 265.996094 3.304688 265.992188 C 3.339844 265.992188 3.375 266.011719 3.410156 266.007812 C 79.414062 260.847656 201.089844 262.234375 204.046875 287.941406 C 205.847656 303.597656 151.226562 310.882812 115.082031 315.707031 C 75.84375 320.945312 63.125 323.246094 62.640625 330.535156 C 62.316406 335.363281 67.089844 339.507812 92.449219 346.414062 C 194.792969 374.285156 355.507812 374.609375 357.117188 374.609375 C 358.945312 374.609375 360.425781 373.132812 360.425781 371.300781 C 360.425781 369.472656 358.945312 367.996094 357.117188 367.996094 " fill-opacity="1" fill-rule="nonzero"/></g><g clip-path="url(#e36254afa4)"><g clip-path="url(#de06f37ef5)"><path fill="#000000" d="M 38.375 176.03125 L 45.785156 176.03125 L 45.785156 183.304688 L 38.375 183.304688 Z M 38.375 176.03125 " fill-opacity="1" fill-rule="nonzero"/></g></g></svg>