<svg xmlns="http://www.w3.org/2000/svg" xmlns:xlink="http://www.w3.org/1999/xlink" width="500" zoomAndPan="magnify" viewBox="0 0 375 374.999991" height="500" preserveAspectRatio="xMidYMid meet" version="1.0"><defs><clipPath id="f30b386bf2"><path d="M 106.007812 203.445312 L 107.574219 203.445312 L 107.574219 204.78125 L 106.007812 204.78125 Z M 106.007812 203.445312 " clip-rule="nonzero"/></clipPath><clipPath id="8b28b5190f"><path d="M 106.199219 204.523438 C 106.425781 203.25 107.324219 203.476562 107.398438 203.699219 C 107.476562 203.925781 106.949219 204.75 106.648438 204.75 C 106.425781 204.75 105.898438 203.851562 106.050781 203.699219 C 106.125 203.476562 107.175781 203.398438 107.398438 203.550781 C 107.550781 203.699219 107.625 204.375 107.476562 204.601562 C 107.324219 204.824219 106.425781 204.75 106.425781 204.75 " clip-rule="nonzero"/></clipPath></defs><path fill="#000000" d="M 53.347656 371.226562 L 103.398438 356.539062 C 107.457031 355.328125 111.300781 353.628906 114.933594 351.453125 C 118.566406 349.277344 121.875 346.683594 124.855469 343.675781 L 355.707031 112.828125 C 373.578125 94.960938 375.320312 67.636719 359.601562 51.917969 L 324.230469 16.546875 C 308.511719 0.8125 281.1875 2.566406 263.320312 20.441406 L 32.46875 251.289062 C 29.464844 254.269531 26.871094 257.574219 24.695312 261.207031 C 22.519531 264.839844 20.820312 268.679688 19.609375 272.738281 L 4.921875 322.796875 C 4.367188 324.480469 3.925781 326.195312 3.601562 327.941406 C 3.277344 329.683594 3.074219 331.445312 2.992188 333.214844 C 2.90625 334.988281 2.941406 336.757812 3.097656 338.527344 C 3.253906 340.292969 3.527344 342.042969 3.921875 343.773438 C 4.3125 345.503906 4.820312 347.199219 5.445312 348.859375 C 6.070312 350.523438 6.800781 352.132812 7.644531 353.695312 C 8.488281 355.257812 9.429688 356.753906 10.476562 358.1875 C 11.523438 359.621094 12.660156 360.980469 13.890625 362.257812 C 15.65625 364.003906 17.578125 365.558594 19.652344 366.925781 C 21.726562 368.289062 23.917969 369.4375 26.21875 370.367188 C 28.523438 371.296875 30.894531 371.988281 33.335938 372.445312 C 35.777344 372.90625 38.242188 373.117188 40.726562 373.085938 C 45.023438 373.074219 49.230469 372.453125 53.347656 371.226562 Z M 284.964844 42.085938 C 286.582031 40.371094 288.457031 39.023438 290.59375 38.035156 C 292.730469 37.046875 294.976562 36.496094 297.328125 36.375 C 298.289062 36.320312 299.226562 36.449219 300.136719 36.765625 C 301.046875 37.078125 301.863281 37.554688 302.589844 38.191406 L 337.960938 73.558594 C 341.199219 76.800781 340.21875 85.023438 334.066406 91.183594 L 298.636719 126.609375 L 249.539062 77.511719 Z M 34.292969 331.421875 L 48.980469 281.355469 C 49.988281 278.121094 51.703125 275.3125 54.113281 272.933594 L 227.894531 99.15625 L 276.992188 148.253906 L 103.210938 322.035156 C 100.832031 324.445312 98.023438 326.160156 94.789062 327.167969 L 44.730469 341.855469 C 43.980469 342.167969 43.199219 342.382812 42.390625 342.488281 C 41.582031 342.597656 40.773438 342.59375 39.964844 342.484375 C 39.15625 342.375 38.378906 342.164062 37.625 341.847656 C 36.875 341.527344 36.179688 341.117188 35.539062 340.613281 C 35.035156 339.972656 34.625 339.277344 34.304688 338.523438 C 33.988281 337.773438 33.773438 336.996094 33.664062 336.1875 C 33.554688 335.378906 33.554688 334.570312 33.660156 333.761719 C 33.769531 332.953125 33.980469 332.171875 34.292969 331.421875 Z M 34.292969 331.421875 " fill-opacity="1" fill-rule="nonzero"/><g clip-path="url(#f30b386bf2)"><g clip-path="url(#8b28b5190f)"><path fill="#000000" d="M 103.050781 200.398438 L 110.5625 200.398438 L 110.5625 207.824219 L 103.050781 207.824219 Z M 103.050781 200.398438 " fill-opacity="1" fill-rule="nonzero"/></g></g></svg>